<svg width="21" height="21" viewBox="0 0 21 21" fill="none" xmlns="http://www.w3.org/2000/svg">
<g clip-path="url(#clip0)">
<path d="M6.91283 15.4347C5.53139 15.4347 4.41162 16.5545 4.41162 17.9359C4.41162 19.3172 5.53139 20.4369 6.91283 20.4369C8.29409 20.4369 9.41386 19.3172 9.41386 17.9359C9.41242 16.5552 8.29355 15.4361 6.91283 15.4347ZM6.91283 19.5174C6.03928 19.5174 5.33114 18.8093 5.33114 17.9359C5.33114 17.0624 6.03928 16.3542 6.91283 16.3542C7.7862 16.3542 8.49433 17.0624 8.49433 17.9359C8.49433 18.8093 7.7862 19.5174 6.91283 19.5174Z" fill="#1D2029"/>
<path d="M20.5446 4.9385H4.31034L3.97935 3.08563C3.77533 1.94502 2.88131 1.0528 1.74035 0.851116L0.5403 0.639734C0.290125 0.595195 0.0514446 0.762038 0.0069052 1.01203C-0.0374546 1.26221 0.129209 1.50089 0.379384 1.54543L1.58392 1.75681C2.34396 1.89151 2.93896 2.4865 3.07366 3.24654L4.70114 12.4279C4.8933 13.5265 5.84785 14.3279 6.96313 14.3268H16.6181C17.6325 14.3298 18.5283 13.6659 18.8205 12.6946L20.9814 5.53152C21.0214 5.3918 20.9961 5.2413 20.9124 5.12241C20.8249 5.00729 20.689 4.9394 20.5446 4.9385ZM17.9423 12.4233C17.7688 13.0066 17.2312 13.4057 16.6228 13.4026H6.9678C6.29809 13.4044 5.72483 12.9225 5.6115 12.2624L4.47593 5.85335H19.9284L17.9423 12.4233Z" fill="#1D2029"/>
<path d="M16.5679 15.4347C15.1864 15.4347 14.0667 16.5545 14.0667 17.9359C14.0667 19.3172 15.1864 20.4369 16.5679 20.4369C17.9491 20.4369 19.0689 19.3172 19.0689 17.9359C19.0675 16.5552 17.9486 15.4361 16.5679 15.4347ZM16.5679 19.5174C15.6943 19.5174 14.9862 18.8093 14.9862 17.9359C14.9862 17.0624 15.6943 16.3542 16.5679 16.3542C17.4412 16.3542 18.1494 17.0624 18.1494 17.9359C18.1494 18.8093 17.4412 19.5174 16.5679 19.5174Z" fill="#1D2029"/>
</g>
<defs>
<clipPath id="clip0">
<rect width="21" height="21" fill="white"/>
</clipPath>
</defs>
</svg>
