<svg width="18" height="18" viewBox="0 0 18 18" fill="none" xmlns="http://www.w3.org/2000/svg">
<path d="M0.43934 17.4099C-0.146447 16.8241 -0.146447 15.8744 0.43934 15.2886L15.2886 0.43934C15.8744 -0.146447 16.8241 -0.146447 17.4099 0.43934C17.9957 1.02513 17.9957 1.97487 17.4099 2.56066L2.56066 17.4099C1.97487 17.9957 1.02513 17.9957 0.43934 17.4099Z" fill="#FF6D00"/>
<path d="M0.43934 0.43934C1.02513 -0.146446 1.97487 -0.146446 2.56066 0.43934L17.4099 15.2886C17.9957 15.8744 17.9957 16.8241 17.4099 17.4099C16.8241 17.9957 15.8744 17.9957 15.2886 17.4099L0.43934 2.56066C-0.146447 1.97487 -0.146447 1.02513 0.43934 0.43934Z" fill="#FF6D00"/>
</svg>
