<svg width="170" height="45" viewBox="0 0 170 45" fill="none" xmlns="http://www.w3.org/2000/svg">
<path d="M1.63 28C1.43 28 1.26 27.93 1.12 27.79C1 27.65 0.96 27.47 1 27.25L5.17 7.75C5.21 7.53 5.32 7.35 5.5 7.21C5.68 7.07 5.87 7 6.07 7H19C19.2 7 19.37 7.07 19.51 7.21C19.61 7.31 19.66 7.44 19.66 7.6C19.66 7.64 19.65 7.69 19.63 7.75L18.97 10.75C18.93 10.97 18.82 11.16 18.64 11.32C18.46 11.46 18.26 11.53 18.04 11.53H9.76L6.4 27.25C6.36 27.47 6.25 27.65 6.07 27.79C5.91 27.93 5.72 28 5.5 28H1.63ZM30.9782 28C30.7582 28 30.5882 27.93 30.4682 27.79C30.3682 27.63 30.3382 27.45 30.3782 27.25L33.6782 11.8H28.0982L27.5282 14.53C26.8082 17.91 26.0282 20.55 25.1882 22.45C24.3482 24.33 23.2482 25.72 21.8882 26.62C20.5282 27.5 18.7282 27.96 16.4882 28C16.2682 28 16.0982 27.92 15.9782 27.76C15.8782 27.64 15.8282 27.51 15.8282 27.37C15.8282 27.31 15.8382 27.26 15.8582 27.22L16.5482 24.07C16.5682 23.87 16.6582 23.7 16.8182 23.56C16.9782 23.42 17.1782 23.33 17.4182 23.29C18.5382 23.11 19.4982 22.23 20.2982 20.65C21.0982 19.05 21.8182 16.78 22.4582 13.84L23.7482 7.75C23.7882 7.53 23.8982 7.35 24.0782 7.21C24.2582 7.07 24.4482 7 24.6482 7H39.3182C39.5182 7 39.6882 7.07 39.8282 7.21C39.9282 7.31 39.9782 7.44 39.9782 7.6C39.9782 7.64 39.9682 7.69 39.9482 7.75L35.7782 27.25C35.7382 27.47 35.6282 27.65 35.4482 27.79C35.2682 27.93 35.0782 28 34.8782 28H30.9782ZM48.7933 28.3C46.4133 28.3 44.4633 27.74 42.9433 26.62C41.4433 25.48 40.6933 23.86 40.6933 21.76C40.6933 21.32 40.7433 20.78 40.8433 20.14C41.1033 18.7 41.4733 16.97 41.9533 14.95C43.3133 9.45 46.8233 6.7 52.4833 6.7C54.0233 6.7 55.4033 6.96 56.6233 7.48C57.8433 7.98 58.8033 8.74 59.5033 9.76C60.2033 10.76 60.5533 11.96 60.5533 13.36C60.5533 13.78 60.5033 14.31 60.4033 14.95C60.1033 16.73 59.7433 18.46 59.3233 20.14C58.6233 22.88 57.4133 24.93 55.6933 26.29C53.9733 27.63 51.6733 28.3 48.7933 28.3ZM49.2133 23.98C50.3333 23.98 51.2833 23.65 52.0633 22.99C52.8633 22.33 53.4333 21.32 53.7733 19.96C54.2333 18.08 54.5833 16.44 54.8233 15.04C54.9033 14.62 54.9433 14.19 54.9433 13.75C54.9433 11.93 53.9933 11.02 52.0933 11.02C50.9733 11.02 50.0133 11.35 49.2133 12.01C48.4333 12.67 47.8733 13.68 47.5333 15.04C47.1733 16.38 46.8133 18.02 46.4533 19.96C46.3733 20.36 46.3333 20.78 46.3333 21.22C46.3333 23.06 47.2933 23.98 49.2133 23.98ZM61.6007 28C61.4007 28 61.2307 27.93 61.0907 27.79C60.9707 27.65 60.9307 27.47 60.9707 27.25L65.1407 7.75C65.1807 7.53 65.2907 7.35 65.4707 7.21C65.6507 7.07 65.8407 7 66.0407 7H80.4407C80.6607 7 80.8307 7.07 80.9507 7.21C81.0307 7.33 81.0707 7.45 81.0707 7.57C81.0707 7.63 81.0607 7.69 81.0407 7.75L80.4107 10.75C80.3707 10.97 80.2607 11.16 80.0807 11.32C79.9007 11.46 79.7007 11.53 79.4807 11.53H69.7307L68.9507 15.13H73.1507C75.2507 15.13 76.8607 15.56 77.9807 16.42C79.1207 17.28 79.6907 18.48 79.6907 20.02C79.6907 20.56 79.6407 21.04 79.5407 21.46C79.2807 22.7 78.7407 23.82 77.9207 24.82C77.1207 25.8 76.0807 26.58 74.8007 27.16C73.5207 27.72 72.0607 28 70.4207 28H61.6007ZM70.7507 24.1C71.3707 24.1 71.9307 23.95 72.4307 23.65C72.9307 23.33 73.3207 22.92 73.6007 22.42C73.8807 21.9 74.0207 21.36 74.0207 20.8C74.0207 20.22 73.8307 19.76 73.4507 19.42C73.0907 19.06 72.5607 18.88 71.8607 18.88H68.1707L67.0607 24.1H70.7507ZM79.7575 28C79.5775 28 79.4375 27.95 79.3375 27.85C79.2375 27.73 79.1875 27.59 79.1875 27.43C79.1875 27.33 79.2175 27.22 79.2775 27.1L90.4075 7.84C90.7275 7.28 91.1775 7 91.7575 7H96.3775C96.9575 7 97.2875 7.28 97.3675 7.84L100.308 27.1C100.348 27.38 100.298 27.6 100.158 27.76C100.018 27.92 99.8375 28 99.6175 28H95.9875C95.4675 28 95.1675 27.76 95.0875 27.28L94.5775 24.31H86.5675L84.7675 27.37C84.4675 27.79 84.0975 28 83.6575 28H79.7575ZM94.2775 19.99L93.1675 12.07L88.6975 19.99H94.2775ZM116.379 28C116.159 28 115.989 27.93 115.869 27.79C115.769 27.63 115.739 27.45 115.779 27.25L119.079 11.8H113.499L112.929 14.53C112.209 17.91 111.429 20.55 110.589 22.45C109.749 24.33 108.649 25.72 107.289 26.62C105.929 27.5 104.129 27.96 101.889 28C101.669 28 101.499 27.92 101.379 27.76C101.279 27.64 101.229 27.51 101.229 27.37C101.229 27.31 101.239 27.26 101.259 27.22L101.949 24.07C101.969 23.87 102.059 23.7 102.219 23.56C102.379 23.42 102.579 23.33 102.819 23.29C103.939 23.11 104.899 22.23 105.699 20.65C106.499 19.05 107.219 16.78 107.859 13.84L109.149 7.75C109.189 7.53 109.299 7.35 109.479 7.21C109.659 7.07 109.849 7 110.049 7H124.719C124.919 7 125.089 7.07 125.229 7.21C125.329 7.31 125.379 7.44 125.379 7.6C125.379 7.64 125.369 7.69 125.349 7.75L121.179 27.25C121.139 27.47 121.029 27.65 120.849 27.79C120.669 27.93 120.479 28 120.279 28H116.379Z" fill="#1D2029"/>
<path d="M134.248 28C134.068 28 133.938 27.93 133.858 27.79C133.778 27.71 133.738 27.61 133.738 27.49C133.738 27.45 133.748 27.4 133.768 27.34C133.828 27.18 133.868 27.09 133.888 27.07L144.118 11.53H135.118C134.918 11.53 134.758 11.46 134.638 11.32C134.538 11.16 134.508 10.97 134.548 10.75L135.178 7.75C135.218 7.53 135.328 7.35 135.508 7.21C135.688 7.07 135.888 7 136.108 7H150.118C150.358 7 150.528 7.07 150.628 7.21C150.708 7.31 150.748 7.43 150.748 7.57C150.748 7.63 150.738 7.69 150.718 7.75L150.178 10.42C150.058 10.88 149.848 11.33 149.548 11.77L139.318 27.28C138.998 27.76 138.598 28 138.118 28H134.248ZM158.885 28C158.665 28 158.495 27.93 158.375 27.79C158.255 27.65 158.215 27.47 158.255 27.25L158.975 23.86H149.285C149.065 23.86 148.905 23.79 148.805 23.65C148.705 23.55 148.655 23.42 148.655 23.26C148.655 23.22 148.665 23.17 148.685 23.11L149.285 20.26C149.365 19.94 149.535 19.65 149.795 19.39L161.075 7.51C161.415 7.17 161.815 7 162.275 7H167.015C167.215 7 167.385 7.07 167.525 7.21C167.625 7.31 167.675 7.44 167.675 7.6C167.675 7.64 167.665 7.69 167.645 7.75L165.155 19.39H167.795C168.035 19.39 168.215 19.46 168.335 19.6C168.415 19.72 168.455 19.84 168.455 19.96C168.455 20.02 168.445 20.08 168.425 20.14L167.765 23.11C167.745 23.33 167.645 23.51 167.465 23.65C167.285 23.79 167.085 23.86 166.865 23.86H164.195L163.475 27.25C163.435 27.47 163.325 27.65 163.145 27.79C162.965 27.93 162.775 28 162.575 28H158.885ZM160.025 19.6L161.495 12.67L155.075 19.6H160.025Z" fill="#FF6D00"/>
<path d="M1.324 43C1.264 43 1.216 42.982 1.18 42.946C1.15 42.91 1.141 42.859 1.153 42.793L2.413 36.916C2.425 36.85 2.452 36.799 2.494 36.763C2.542 36.721 2.596 36.7 2.656 36.7H7.093C7.153 36.7 7.201 36.718 7.237 36.754C7.267 36.784 7.282 36.823 7.282 36.871C7.282 36.883 7.279 36.898 7.273 36.916L6.013 42.793C6.001 42.853 5.971 42.904 5.923 42.946C5.875 42.982 5.821 43 5.761 43H5.302C5.242 43 5.194 42.982 5.158 42.946C5.128 42.904 5.119 42.853 5.131 42.793L6.256 37.51H3.16L2.035 42.793C2.023 42.853 1.993 42.904 1.945 42.946C1.897 42.982 1.843 43 1.783 43H1.324ZM7.6048 44.71C7.5448 44.71 7.4998 44.692 7.4698 44.656C7.4458 44.626 7.4338 44.59 7.4338 44.548C7.4338 44.536 7.4368 44.521 7.4428 44.503L8.7208 38.527C8.7268 38.467 8.7538 38.419 8.8018 38.383C8.8498 38.341 8.9038 38.32 8.9638 38.32H9.3778C9.4378 38.32 9.4828 38.338 9.5128 38.374C9.5368 38.404 9.5488 38.44 9.5488 38.482C9.5488 38.494 9.5458 38.509 9.5398 38.527L9.4588 38.923C9.6568 38.713 9.8908 38.545 10.1608 38.419C10.4368 38.293 10.7458 38.23 11.0878 38.23C11.6098 38.23 11.9938 38.371 12.2398 38.653C12.4858 38.935 12.6088 39.31 12.6088 39.778C12.6088 39.964 12.5908 40.156 12.5548 40.354C12.5128 40.588 12.4678 40.792 12.4198 40.966C12.2698 41.584 11.9938 42.094 11.5918 42.496C11.1898 42.892 10.6768 43.09 10.0528 43.09C9.7168 43.09 9.4408 43.03 9.2248 42.91C9.0148 42.79 8.8558 42.625 8.7478 42.415L8.2978 44.503C8.2858 44.563 8.2558 44.611 8.2078 44.647C8.1598 44.689 8.1058 44.71 8.0458 44.71H7.6048ZM10.0168 42.361C10.4428 42.361 10.7788 42.229 11.0248 41.965C11.2768 41.701 11.4598 41.353 11.5738 40.921C11.6218 40.723 11.6578 40.549 11.6818 40.399C11.7058 40.261 11.7178 40.114 11.7178 39.958C11.7178 39.292 11.3938 38.959 10.7458 38.959C10.3318 38.959 9.9898 39.097 9.7198 39.373C9.4498 39.643 9.2698 39.967 9.1798 40.345C9.1018 40.663 9.0508 40.894 9.0268 41.038C9.0088 41.134 8.9998 41.23 8.9998 41.326C8.9998 41.626 9.0808 41.875 9.2428 42.073C9.4108 42.265 9.6688 42.361 10.0168 42.361ZM14.8291 43.09C14.2651 43.09 13.8271 42.943 13.5151 42.649C13.2091 42.355 13.0561 41.965 13.0561 41.479C13.0561 41.329 13.0681 41.185 13.0921 41.047C13.1101 40.927 13.1341 40.792 13.1641 40.642C13.2001 40.492 13.2331 40.369 13.2631 40.273C13.4131 39.649 13.6981 39.154 14.1181 38.788C14.5381 38.416 15.0781 38.23 15.7381 38.23C16.3081 38.23 16.7461 38.377 17.0521 38.671C17.3641 38.965 17.5201 39.355 17.5201 39.841C17.5201 39.991 17.5081 40.135 17.4841 40.273C17.4481 40.477 17.3941 40.735 17.3221 41.047C17.1601 41.671 16.8691 42.169 16.4491 42.541C16.0351 42.907 15.4951 43.09 14.8291 43.09ZM14.8651 42.397C15.2491 42.397 15.5851 42.277 15.8731 42.037C16.1611 41.791 16.3591 41.446 16.4671 41.002C16.5211 40.786 16.5721 40.558 16.6201 40.318C16.6441 40.18 16.6561 40.042 16.6561 39.904C16.6561 39.586 16.5751 39.343 16.4131 39.175C16.2511 39.007 16.0141 38.923 15.7021 38.923C15.3181 38.923 14.9821 39.046 14.6941 39.292C14.4121 39.532 14.2171 39.874 14.1091 40.318C14.0551 40.504 14.0071 40.732 13.9651 41.002C13.9351 41.182 13.9201 41.329 13.9201 41.443C13.9201 41.755 13.9981 41.992 14.1541 42.154C14.3161 42.316 14.5531 42.397 14.8651 42.397ZM19.8625 43.09C19.3525 43.09 18.9685 42.967 18.7105 42.721C18.4585 42.469 18.3325 42.121 18.3325 41.677C18.3325 41.497 18.3565 41.293 18.4045 41.065L18.9445 38.527C18.9565 38.467 18.9865 38.419 19.0345 38.383C19.0825 38.341 19.1365 38.32 19.1965 38.32H19.6465C19.7065 38.32 19.7515 38.338 19.7815 38.374C19.7995 38.404 19.8085 38.437 19.8085 38.473C19.8085 38.491 19.8055 38.509 19.7995 38.527L19.2775 41.02C19.2295 41.26 19.2055 41.458 19.2055 41.614C19.2055 41.866 19.2715 42.055 19.4035 42.181C19.5415 42.301 19.7665 42.361 20.0785 42.361C20.4745 42.361 20.8165 42.244 21.1045 42.01C21.3985 41.77 21.5905 41.44 21.6805 41.02L22.2115 38.527C22.2235 38.467 22.2535 38.419 22.3015 38.383C22.3495 38.341 22.4035 38.32 22.4635 38.32H22.9045C22.9645 38.32 23.0095 38.338 23.0395 38.374C23.0635 38.404 23.0755 38.44 23.0755 38.482C23.0755 38.494 23.0725 38.509 23.0665 38.527L22.1575 42.793C22.1455 42.853 22.1155 42.904 22.0675 42.946C22.0255 42.982 21.9745 43 21.9145 43H21.5005C21.4405 43 21.3925 42.982 21.3565 42.946C21.3265 42.904 21.3175 42.853 21.3295 42.793L21.4105 42.397C21.1765 42.637 20.9515 42.814 20.7355 42.928C20.5255 43.036 20.2345 43.09 19.8625 43.09ZM25.2226 43.09C24.8206 43.09 24.4906 43.033 24.2326 42.919C23.9806 42.799 23.7976 42.652 23.6836 42.478C23.5696 42.298 23.5126 42.118 23.5126 41.938C23.5126 41.872 23.5156 41.824 23.5216 41.794C23.5276 41.74 23.5516 41.698 23.5936 41.668C23.6356 41.632 23.6836 41.614 23.7376 41.614H24.1516C24.2716 41.614 24.3316 41.671 24.3316 41.785C24.3556 42.013 24.4546 42.175 24.6286 42.271C24.8026 42.361 25.0486 42.406 25.3666 42.406C25.7206 42.406 26.0146 42.325 26.2486 42.163C26.4826 42.001 26.5996 41.758 26.5996 41.434C26.5996 41.086 26.3566 40.912 25.8706 40.912H25.3846C25.3246 40.912 25.2796 40.894 25.2496 40.858C25.2256 40.834 25.2136 40.801 25.2136 40.759C25.2136 40.747 25.2166 40.732 25.2226 40.714L25.2766 40.471C25.2886 40.411 25.3156 40.363 25.3576 40.327C25.4056 40.291 25.4596 40.273 25.5196 40.273H25.9516C26.5636 40.273 26.8696 39.997 26.8696 39.445C26.8696 39.085 26.6206 38.905 26.1226 38.905C25.7866 38.905 25.5196 38.965 25.3216 39.085C25.1236 39.199 24.9676 39.373 24.8536 39.607C24.8176 39.667 24.7786 39.712 24.7366 39.742C24.7006 39.766 24.6526 39.778 24.5926 39.778H24.1786C24.1306 39.778 24.0916 39.763 24.0616 39.733C24.0376 39.697 24.0286 39.655 24.0346 39.607C24.1306 39.217 24.3616 38.89 24.7276 38.626C25.0996 38.362 25.5826 38.23 26.1766 38.23C26.7106 38.23 27.1006 38.335 27.3466 38.545C27.5986 38.749 27.7246 39.001 27.7246 39.301C27.7246 39.379 27.7156 39.46 27.6976 39.544C27.6496 39.784 27.5566 39.985 27.4186 40.147C27.2806 40.309 27.0916 40.447 26.8516 40.561C27.2476 40.687 27.4456 40.972 27.4456 41.416C27.4456 41.536 27.4336 41.653 27.4096 41.767C27.3316 42.163 27.0916 42.484 26.6896 42.73C26.2876 42.97 25.7986 43.09 25.2226 43.09ZM28.4747 43C28.4147 43 28.3667 42.982 28.3307 42.946C28.3007 42.904 28.2917 42.853 28.3037 42.793L29.2217 38.527C29.2277 38.467 29.2547 38.419 29.3027 38.383C29.3507 38.341 29.4047 38.32 29.4647 38.32H31.3367C31.7927 38.32 32.1377 38.407 32.3717 38.581C32.6117 38.749 32.7317 38.986 32.7317 39.292C32.7317 39.352 32.7197 39.448 32.6957 39.58C32.6477 39.826 32.5577 40.03 32.4257 40.192C32.2937 40.348 32.1197 40.48 31.9037 40.588C32.0897 40.654 32.2307 40.765 32.3267 40.921C32.4227 41.071 32.4707 41.239 32.4707 41.425C32.4707 41.503 32.4617 41.584 32.4437 41.668C32.3477 42.1 32.1227 42.43 31.7687 42.658C31.4207 42.886 30.9707 43 30.4187 43H28.4747ZM30.8687 40.309C31.1387 40.309 31.3637 40.246 31.5437 40.12C31.7297 39.994 31.8437 39.817 31.8857 39.589C31.8977 39.517 31.9037 39.466 31.9037 39.436C31.9037 39.13 31.6517 38.977 31.1477 38.977H29.9507L29.6627 40.309H30.8687ZM30.5177 42.343C30.8537 42.343 31.1237 42.271 31.3277 42.127C31.5377 41.983 31.6427 41.77 31.6427 41.488C31.6427 41.308 31.5737 41.179 31.4357 41.101C31.2977 41.017 31.0877 40.975 30.8057 40.975H29.5187L29.2307 42.343H30.5177ZM35.1846 43.09C34.6206 43.09 34.1826 42.943 33.8706 42.649C33.5646 42.355 33.4116 41.965 33.4116 41.479C33.4116 41.329 33.4236 41.185 33.4476 41.047C33.4656 40.927 33.4896 40.792 33.5196 40.642C33.5556 40.492 33.5886 40.369 33.6186 40.273C33.7686 39.649 34.0536 39.154 34.4736 38.788C34.8936 38.416 35.4336 38.23 36.0936 38.23C36.6636 38.23 37.1016 38.377 37.4076 38.671C37.7196 38.965 37.8756 39.355 37.8756 39.841C37.8756 39.991 37.8636 40.135 37.8396 40.273C37.8036 40.477 37.7496 40.735 37.6776 41.047C37.5156 41.671 37.2246 42.169 36.8046 42.541C36.3906 42.907 35.8506 43.09 35.1846 43.09ZM35.2206 42.397C35.6046 42.397 35.9406 42.277 36.2286 42.037C36.5166 41.791 36.7146 41.446 36.8226 41.002C36.8766 40.786 36.9276 40.558 36.9756 40.318C36.9996 40.18 37.0116 40.042 37.0116 39.904C37.0116 39.586 36.9306 39.343 36.7686 39.175C36.6066 39.007 36.3696 38.923 36.0576 38.923C35.6736 38.923 35.3376 39.046 35.0496 39.292C34.7676 39.532 34.5726 39.874 34.4646 40.318C34.4106 40.504 34.3626 40.732 34.3206 41.002C34.2906 41.182 34.2756 41.329 34.2756 41.443C34.2756 41.755 34.3536 41.992 34.5096 42.154C34.6716 42.316 34.9086 42.397 35.2206 42.397ZM40.326 43.09C39.762 43.09 39.324 42.943 39.012 42.649C38.706 42.355 38.553 41.965 38.553 41.479C38.553 41.329 38.565 41.185 38.589 41.047C38.649 40.771 38.694 40.582 38.724 40.48C38.874 39.88 39.156 39.403 39.57 39.049C39.99 38.689 40.524 38.509 41.172 38.509C41.736 38.509 42.171 38.734 42.477 39.184C42.531 38.884 42.558 38.617 42.558 38.383C42.558 37.909 42.429 37.558 42.171 37.33C41.919 37.096 41.499 36.967 40.911 36.943C40.851 36.943 40.8 36.925 40.758 36.889C40.716 36.847 40.695 36.796 40.695 36.736V36.466C40.695 36.406 40.716 36.355 40.758 36.313C40.8 36.271 40.851 36.25 40.911 36.25C41.739 36.274 42.339 36.469 42.711 36.835C43.089 37.201 43.278 37.741 43.278 38.455C43.278 38.965 43.191 39.568 43.017 40.264C42.957 40.552 42.891 40.813 42.819 41.047C42.657 41.671 42.366 42.169 41.946 42.541C41.532 42.907 40.992 43.09 40.326 43.09ZM40.371 42.397C40.755 42.397 41.088 42.277 41.37 42.037C41.658 41.791 41.856 41.446 41.964 41.002C42.042 40.756 42.087 40.597 42.099 40.525C42.123 40.423 42.135 40.309 42.135 40.183C42.135 39.883 42.048 39.646 41.874 39.472C41.706 39.298 41.475 39.211 41.181 39.211C40.377 39.211 39.84 39.649 39.57 40.525C39.534 40.639 39.498 40.798 39.462 41.002C39.432 41.182 39.417 41.329 39.417 41.443C39.417 42.079 39.735 42.397 40.371 42.397ZM45.5992 43.09C45.0652 43.09 44.6392 42.949 44.3212 42.667C44.0032 42.379 43.8442 41.983 43.8442 41.479C43.8442 41.353 43.8592 41.2 43.8892 41.02C43.9552 40.696 44.0062 40.456 44.0422 40.3C44.2042 39.64 44.4952 39.13 44.9152 38.77C45.3352 38.41 45.8662 38.23 46.5082 38.23C46.9162 38.23 47.2522 38.302 47.5162 38.446C47.7802 38.584 47.9722 38.761 48.0922 38.977C48.2122 39.187 48.2722 39.403 48.2722 39.625C48.2722 39.685 48.2692 39.73 48.2632 39.76C48.2512 39.82 48.2272 39.871 48.1912 39.913C48.1552 39.949 48.1072 39.967 48.0472 39.967H47.5792C47.5132 39.967 47.4652 39.949 47.4352 39.913C47.4052 39.877 47.3902 39.817 47.3902 39.733C47.3902 39.205 47.0842 38.941 46.4722 38.941C46.0942 38.941 45.7642 39.058 45.4822 39.292C45.2002 39.52 45.0022 39.871 44.8882 40.345L44.7532 40.975C44.7232 41.155 44.7082 41.305 44.7082 41.425C44.7082 42.061 45.0232 42.379 45.6532 42.379C46.2772 42.379 46.7272 42.112 47.0032 41.578C47.0452 41.506 47.0812 41.458 47.1112 41.434C47.1472 41.404 47.1952 41.389 47.2552 41.389H47.7142C47.7742 41.389 47.8192 41.407 47.8492 41.443C47.8612 41.467 47.8672 41.494 47.8672 41.524C47.8672 41.548 47.8642 41.572 47.8582 41.596C47.7922 41.824 47.6662 42.052 47.4802 42.28C47.3002 42.508 47.0512 42.7 46.7332 42.856C46.4152 43.012 46.0372 43.09 45.5992 43.09ZM50.1243 43C50.0643 43 50.0163 42.982 49.9803 42.946C49.9503 42.904 49.9413 42.853 49.9533 42.793L50.7543 39.04H49.1973C49.1373 39.04 49.0923 39.019 49.0623 38.977C49.0383 38.953 49.0263 38.92 49.0263 38.878C49.0263 38.866 49.0293 38.851 49.0353 38.833L49.0983 38.527C49.1043 38.467 49.1313 38.419 49.1793 38.383C49.2273 38.341 49.2813 38.32 49.3413 38.32H53.3013C53.3613 38.32 53.4093 38.338 53.4453 38.374C53.4693 38.404 53.4813 38.44 53.4813 38.482C53.4813 38.494 53.4783 38.509 53.4723 38.527L53.4093 38.833C53.3973 38.893 53.3643 38.944 53.3103 38.986C53.2623 39.022 53.2083 39.04 53.1483 39.04H51.5913L50.7903 42.793C50.7783 42.853 50.7483 42.904 50.7003 42.946C50.6583 42.982 50.6073 43 50.5473 43H50.1243ZM53.5147 43C53.4547 43 53.4067 42.982 53.3707 42.946C53.3407 42.904 53.3317 42.853 53.3437 42.793L54.2617 38.527C54.2677 38.467 54.2947 38.419 54.3427 38.383C54.3907 38.341 54.4447 38.32 54.5047 38.32H56.3767C56.8327 38.32 57.1777 38.407 57.4117 38.581C57.6517 38.749 57.7717 38.986 57.7717 39.292C57.7717 39.352 57.7597 39.448 57.7357 39.58C57.6877 39.826 57.5977 40.03 57.4657 40.192C57.3337 40.348 57.1597 40.48 56.9437 40.588C57.1297 40.654 57.2707 40.765 57.3667 40.921C57.4627 41.071 57.5107 41.239 57.5107 41.425C57.5107 41.503 57.5017 41.584 57.4837 41.668C57.3877 42.1 57.1627 42.43 56.8087 42.658C56.4607 42.886 56.0107 43 55.4587 43H53.5147ZM55.9087 40.309C56.1787 40.309 56.4037 40.246 56.5837 40.12C56.7697 39.994 56.8837 39.817 56.9257 39.589C56.9377 39.517 56.9437 39.466 56.9437 39.436C56.9437 39.13 56.6917 38.977 56.1877 38.977H54.9907L54.7027 40.309H55.9087ZM55.5577 42.343C55.8937 42.343 56.1637 42.271 56.3677 42.127C56.5777 41.983 56.6827 41.77 56.6827 41.488C56.6827 41.308 56.6137 41.179 56.4757 41.101C56.3377 41.017 56.1277 40.975 55.8457 40.975H54.5587L54.2707 42.343H55.5577ZM60.2606 43.09C59.7206 43.09 59.3066 42.946 59.0186 42.658C58.7306 42.364 58.5866 41.956 58.5866 41.434C58.5866 41.26 58.5986 41.101 58.6226 40.957C58.6646 40.717 58.7096 40.516 58.7576 40.354C58.9376 39.706 59.2496 39.19 59.6936 38.806C60.1436 38.422 60.6746 38.23 61.2866 38.23C61.8326 38.23 62.2496 38.377 62.5376 38.671C62.8256 38.959 62.9696 39.361 62.9696 39.877C62.9696 40.093 62.9426 40.327 62.8886 40.579L62.8526 40.732C62.8406 40.792 62.8106 40.843 62.7626 40.885C62.7146 40.921 62.6576 40.939 62.5916 40.939H59.4866C59.4866 40.969 59.4806 40.996 59.4686 41.02C59.4506 41.128 59.4416 41.236 59.4416 41.344C59.4416 41.662 59.5226 41.923 59.6846 42.127C59.8466 42.325 60.0836 42.424 60.3956 42.424C60.6716 42.424 60.9086 42.37 61.1066 42.262C61.3106 42.148 61.4636 42.031 61.5656 41.911C61.6376 41.839 61.6886 41.797 61.7186 41.785C61.7546 41.767 61.8086 41.758 61.8806 41.758H62.3126C62.3666 41.758 62.4086 41.776 62.4386 41.812C62.4626 41.836 62.4746 41.866 62.4746 41.902C62.4746 41.914 62.4716 41.929 62.4656 41.947C62.4296 42.079 62.3096 42.238 62.1056 42.424C61.9016 42.604 61.6376 42.76 61.3136 42.892C60.9896 43.024 60.6386 43.09 60.2606 43.09ZM62.0786 40.318L62.0876 40.291C62.1176 40.141 62.1326 40.009 62.1326 39.895C62.1326 39.589 62.0456 39.346 61.8716 39.166C61.7036 38.98 61.4636 38.887 61.1516 38.887C60.7736 38.887 60.4466 39.019 60.1706 39.283C59.9006 39.541 59.7206 39.877 59.6306 40.291L59.6216 40.318H62.0786ZM63.5782 43C63.5182 43 63.4702 42.982 63.4342 42.946C63.4042 42.904 63.3952 42.853 63.4072 42.793L64.3252 38.527C64.3312 38.467 64.3582 38.419 64.4062 38.383C64.4542 38.341 64.5082 38.32 64.5682 38.32H65.0002C65.0602 38.32 65.1052 38.338 65.1352 38.374C65.1592 38.404 65.1712 38.44 65.1712 38.482C65.1712 38.494 65.1682 38.509 65.1622 38.527L64.7932 40.255H67.2412L67.6192 38.527C67.6312 38.467 67.6582 38.419 67.7002 38.383C67.7482 38.341 67.8022 38.32 67.8622 38.32H68.2852C68.3452 38.32 68.3932 38.338 68.4292 38.374C68.4532 38.404 68.4652 38.44 68.4652 38.482C68.4652 38.494 68.4622 38.509 68.4562 38.527L67.5382 42.793C67.5322 42.853 67.5052 42.904 67.4572 42.946C67.4092 42.982 67.3552 43 67.2952 43H66.8722C66.8122 43 66.7642 42.982 66.7282 42.946C66.6982 42.904 66.6892 42.853 66.7012 42.793L67.0882 40.975H64.6402L64.2532 42.793C64.2472 42.853 64.2202 42.904 64.1722 42.946C64.1242 42.982 64.0702 43 64.0102 43H63.5782ZM69.0626 43C69.0026 43 68.9546 42.982 68.9186 42.946C68.8886 42.904 68.8796 42.853 68.8916 42.793L69.8096 38.527C69.8156 38.467 69.8426 38.419 69.8906 38.383C69.9386 38.341 69.9926 38.32 70.0526 38.32H70.4846C70.5446 38.32 70.5896 38.338 70.6196 38.374C70.6436 38.404 70.6556 38.44 70.6556 38.482C70.6556 38.494 70.6526 38.509 70.6466 38.527L70.2776 40.255H72.7256L73.1036 38.527C73.1156 38.467 73.1426 38.419 73.1846 38.383C73.2326 38.341 73.2866 38.32 73.3466 38.32H73.7696C73.8296 38.32 73.8776 38.338 73.9136 38.374C73.9376 38.404 73.9496 38.44 73.9496 38.482C73.9496 38.494 73.9466 38.509 73.9406 38.527L73.0226 42.793C73.0166 42.853 72.9896 42.904 72.9416 42.946C72.8936 42.982 72.8396 43 72.7796 43H72.3566C72.2966 43 72.2486 42.982 72.2126 42.946C72.1826 42.904 72.1736 42.853 72.1856 42.793L72.5726 40.975H70.1246L69.7376 42.793C69.7316 42.853 69.7046 42.904 69.6566 42.946C69.6086 42.982 69.5546 43 69.4946 43H69.0626ZM75.9959 43.09C75.4679 43.09 75.0779 42.94 74.8259 42.64C74.5739 42.34 74.4479 41.944 74.4479 41.452C74.4479 41.302 74.4629 41.128 74.4929 40.93C74.5109 40.846 74.5499 40.666 74.6099 40.39C74.7779 39.748 75.0449 39.229 75.4109 38.833C75.7829 38.431 76.2899 38.23 76.9319 38.23C77.2919 38.23 77.5709 38.29 77.7689 38.41C77.9729 38.524 78.1349 38.686 78.2549 38.896L78.3269 38.527C78.3389 38.467 78.3689 38.419 78.4169 38.383C78.4649 38.341 78.5189 38.32 78.5789 38.32H78.9839C79.0439 38.32 79.0919 38.338 79.1279 38.374C79.1519 38.404 79.1639 38.44 79.1639 38.482C79.1639 38.494 79.1609 38.509 79.1549 38.527L78.2459 42.793C78.2339 42.853 78.2039 42.904 78.1559 42.946C78.1139 42.982 78.0629 43 78.0029 43H77.5889C77.5289 43 77.4839 42.979 77.4539 42.937C77.4299 42.913 77.4179 42.88 77.4179 42.838C77.4179 42.826 77.4209 42.811 77.4269 42.793L77.5079 42.415C77.2859 42.643 77.0639 42.814 76.8419 42.928C76.6259 43.036 76.3439 43.09 75.9959 43.09ZM76.1849 42.361C76.6049 42.361 76.9529 42.223 77.2289 41.947C77.5109 41.671 77.6969 41.347 77.7869 40.975C77.8349 40.759 77.8829 40.528 77.9309 40.282C77.9549 40.18 77.9669 40.063 77.9669 39.931C77.9669 39.649 77.8889 39.418 77.7329 39.238C77.5769 39.052 77.3339 38.959 77.0039 38.959C76.6079 38.959 76.2839 39.094 76.0319 39.364C75.7859 39.628 75.5999 39.973 75.4739 40.399C75.4319 40.531 75.3959 40.705 75.3659 40.921C75.3359 41.113 75.3209 41.278 75.3209 41.416C75.3209 41.71 75.3869 41.941 75.5189 42.109C75.6509 42.277 75.8729 42.361 76.1849 42.361ZM83.9334 38.32C83.9934 38.32 84.0414 38.338 84.0774 38.374C84.1014 38.404 84.1134 38.44 84.1134 38.482C84.1134 38.494 84.1104 38.509 84.1044 38.527L83.1864 42.793C83.1744 42.853 83.1444 42.904 83.0964 42.946C83.0544 42.982 83.0034 43 82.9434 43H82.5294C82.4694 43 82.4214 42.982 82.3854 42.946C82.3554 42.904 82.3464 42.853 82.3584 42.793L82.6734 41.326H81.7374L80.3874 42.865C80.2974 42.955 80.2104 43 80.1264 43H79.6494C79.6074 43 79.5714 42.988 79.5414 42.964C79.5174 42.934 79.5054 42.898 79.5054 42.856C79.5054 42.79 79.5384 42.724 79.6044 42.658L80.9544 41.137C80.7264 41.035 80.5524 40.885 80.4324 40.687C80.3124 40.489 80.2524 40.276 80.2524 40.048C80.2524 39.958 80.2614 39.868 80.2794 39.778C80.3934 39.28 80.6244 38.914 80.9724 38.68C81.3204 38.44 81.7974 38.32 82.4034 38.32H83.9334ZM83.1774 38.995H82.2324C81.8904 38.995 81.6294 39.055 81.4494 39.175C81.2694 39.295 81.1494 39.502 81.0894 39.796C81.0714 39.874 81.0624 39.955 81.0624 40.039C81.0624 40.225 81.1224 40.375 81.2424 40.489C81.3684 40.597 81.5574 40.651 81.8094 40.651H82.8264L83.1774 38.995ZM88.3611 43C88.3011 43 88.2531 42.982 88.2171 42.946C88.1871 42.904 88.1781 42.853 88.1901 42.793L89.3151 37.501H87.5871C87.5271 37.501 87.4821 37.48 87.4521 37.438C87.4281 37.414 87.4161 37.381 87.4161 37.339C87.4161 37.327 87.4191 37.312 87.4251 37.294L87.5061 36.916C87.5181 36.85 87.5481 36.799 87.5961 36.763C87.6441 36.721 87.6981 36.7 87.7581 36.7H92.0961C92.1561 36.7 92.2011 36.718 92.2311 36.754C92.2551 36.784 92.2671 36.82 92.2671 36.862C92.2671 36.88 92.2641 36.898 92.2581 36.916L92.1771 37.294C92.1651 37.354 92.1351 37.405 92.0871 37.447C92.0451 37.483 91.9911 37.501 91.9251 37.501H90.2061L89.0811 42.793C89.0691 42.853 89.0391 42.904 88.9911 42.946C88.9431 42.982 88.8891 43 88.8291 43H88.3611ZM93.6281 43.09C93.0581 43.09 92.6351 42.97 92.3591 42.73C92.0891 42.484 91.9541 42.19 91.9541 41.848C91.9541 41.806 91.9601 41.743 91.9721 41.659C91.9781 41.605 92.0021 41.56 92.0441 41.524C92.0921 41.488 92.1431 41.47 92.1971 41.47H92.5931C92.6591 41.47 92.7041 41.482 92.7281 41.506C92.7521 41.53 92.7701 41.575 92.7821 41.641C92.8301 41.917 92.9351 42.115 93.0971 42.235C93.2591 42.349 93.4841 42.406 93.7721 42.406C94.1501 42.406 94.4711 42.295 94.7351 42.073C95.0051 41.845 95.1971 41.497 95.3111 41.029L95.3201 40.975H93.5831C93.5231 40.975 93.4811 40.957 93.4571 40.921C93.4331 40.897 93.4211 40.864 93.4211 40.822C93.4211 40.81 93.4241 40.795 93.4301 40.777L93.4751 40.534C93.4871 40.48 93.5141 40.435 93.5561 40.399C93.6041 40.357 93.6581 40.336 93.7181 40.336H95.4551L95.4641 40.291C95.4941 40.123 95.5091 39.985 95.5091 39.877C95.5091 39.553 95.4221 39.313 95.2481 39.157C95.0741 38.995 94.8311 38.914 94.5191 38.914C94.2311 38.914 93.9791 38.974 93.7631 39.094C93.5531 39.208 93.3641 39.403 93.1961 39.679C93.1541 39.751 93.1151 39.799 93.0791 39.823C93.0491 39.847 93.0011 39.859 92.9351 39.859H92.5481C92.4941 39.859 92.4521 39.841 92.4221 39.805C92.4041 39.781 92.3951 39.754 92.3951 39.724C92.3951 39.706 92.3981 39.688 92.4041 39.67C92.4641 39.442 92.5871 39.217 92.7731 38.995C92.9651 38.773 93.2201 38.59 93.5381 38.446C93.8561 38.302 94.2281 38.23 94.6541 38.23C95.2181 38.23 95.6471 38.365 95.9411 38.635C96.2351 38.905 96.3821 39.286 96.3821 39.778C96.3821 39.922 96.3671 40.093 96.3371 40.291C96.2831 40.603 96.2261 40.849 96.1661 41.029C96.0041 41.683 95.7071 42.19 95.2751 42.55C94.8431 42.91 94.2941 43.09 93.6281 43.09ZM97.1085 43C97.0485 43 97.0005 42.982 96.9645 42.946C96.9345 42.904 96.9255 42.853 96.9375 42.793L97.8555 38.527C97.8615 38.467 97.8885 38.419 97.9365 38.383C97.9845 38.341 98.0385 38.32 98.0985 38.32H98.5305C98.5905 38.32 98.6355 38.338 98.6655 38.374C98.6895 38.404 98.7015 38.44 98.7015 38.482C98.7015 38.494 98.6985 38.509 98.6925 38.527L98.3235 40.255H100.771L101.149 38.527C101.161 38.467 101.188 38.419 101.23 38.383C101.278 38.341 101.332 38.32 101.392 38.32H101.815C101.875 38.32 101.923 38.338 101.959 38.374C101.983 38.404 101.995 38.44 101.995 38.482C101.995 38.494 101.992 38.509 101.986 38.527L101.068 42.793C101.062 42.853 101.035 42.904 100.987 42.946C100.939 42.982 100.885 43 100.825 43H100.402C100.342 43 100.294 42.982 100.258 42.946C100.228 42.904 100.219 42.853 100.231 42.793L100.618 40.975H98.1705L97.7835 42.793C97.7775 42.853 97.7505 42.904 97.7025 42.946C97.6545 42.982 97.6005 43 97.5405 43H97.1085ZM104.258 43.09C103.694 43.09 103.256 42.943 102.944 42.649C102.638 42.355 102.485 41.965 102.485 41.479C102.485 41.329 102.497 41.185 102.521 41.047C102.539 40.927 102.563 40.792 102.593 40.642C102.629 40.492 102.662 40.369 102.692 40.273C102.842 39.649 103.127 39.154 103.547 38.788C103.967 38.416 104.507 38.23 105.167 38.23C105.737 38.23 106.175 38.377 106.481 38.671C106.793 38.965 106.949 39.355 106.949 39.841C106.949 39.991 106.937 40.135 106.913 40.273C106.877 40.477 106.823 40.735 106.751 41.047C106.589 41.671 106.298 42.169 105.878 42.541C105.464 42.907 104.924 43.09 104.258 43.09ZM104.294 42.397C104.678 42.397 105.014 42.277 105.302 42.037C105.59 41.791 105.788 41.446 105.896 41.002C105.95 40.786 106.001 40.558 106.049 40.318C106.073 40.18 106.085 40.042 106.085 39.904C106.085 39.586 106.004 39.343 105.842 39.175C105.68 39.007 105.443 38.923 105.131 38.923C104.747 38.923 104.411 39.046 104.123 39.292C103.841 39.532 103.646 39.874 103.538 40.318C103.484 40.504 103.436 40.732 103.394 41.002C103.364 41.182 103.349 41.329 103.349 41.443C103.349 41.755 103.427 41.992 103.583 42.154C103.745 42.316 103.982 42.397 104.294 42.397ZM107.743 43C107.683 43 107.635 42.982 107.599 42.946C107.569 42.904 107.56 42.853 107.572 42.793L108.49 38.527C108.496 38.467 108.523 38.419 108.571 38.383C108.619 38.341 108.673 38.32 108.733 38.32H110.605C111.061 38.32 111.406 38.407 111.64 38.581C111.88 38.749 112 38.986 112 39.292C112 39.352 111.988 39.448 111.964 39.58C111.916 39.826 111.826 40.03 111.694 40.192C111.562 40.348 111.388 40.48 111.172 40.588C111.358 40.654 111.499 40.765 111.595 40.921C111.691 41.071 111.739 41.239 111.739 41.425C111.739 41.503 111.73 41.584 111.712 41.668C111.616 42.1 111.391 42.43 111.037 42.658C110.689 42.886 110.239 43 109.687 43H107.743ZM110.137 40.309C110.407 40.309 110.632 40.246 110.812 40.12C110.998 39.994 111.112 39.817 111.154 39.589C111.166 39.517 111.172 39.466 111.172 39.436C111.172 39.13 110.92 38.977 110.416 38.977H109.219L108.931 40.309H110.137ZM109.786 42.343C110.122 42.343 110.392 42.271 110.596 42.127C110.806 41.983 110.911 41.77 110.911 41.488C110.911 41.308 110.842 41.179 110.704 41.101C110.566 41.017 110.356 40.975 110.074 40.975H108.787L108.499 42.343H109.786ZM114.237 43.09C113.709 43.09 113.319 42.94 113.067 42.64C112.815 42.34 112.689 41.944 112.689 41.452C112.689 41.302 112.704 41.128 112.734 40.93C112.752 40.846 112.791 40.666 112.851 40.39C113.019 39.748 113.286 39.229 113.652 38.833C114.024 38.431 114.531 38.23 115.173 38.23C115.533 38.23 115.812 38.29 116.01 38.41C116.214 38.524 116.376 38.686 116.496 38.896L116.568 38.527C116.58 38.467 116.61 38.419 116.658 38.383C116.706 38.341 116.76 38.32 116.82 38.32H117.225C117.285 38.32 117.333 38.338 117.369 38.374C117.393 38.404 117.405 38.44 117.405 38.482C117.405 38.494 117.402 38.509 117.396 38.527L116.487 42.793C116.475 42.853 116.445 42.904 116.397 42.946C116.355 42.982 116.304 43 116.244 43H115.83C115.77 43 115.725 42.979 115.695 42.937C115.671 42.913 115.659 42.88 115.659 42.838C115.659 42.826 115.662 42.811 115.668 42.793L115.749 42.415C115.527 42.643 115.305 42.814 115.083 42.928C114.867 43.036 114.585 43.09 114.237 43.09ZM114.426 42.361C114.846 42.361 115.194 42.223 115.47 41.947C115.752 41.671 115.938 41.347 116.028 40.975C116.076 40.759 116.124 40.528 116.172 40.282C116.196 40.18 116.208 40.063 116.208 39.931C116.208 39.649 116.13 39.418 115.974 39.238C115.818 39.052 115.575 38.959 115.245 38.959C114.849 38.959 114.525 39.094 114.273 39.364C114.027 39.628 113.841 39.973 113.715 40.399C113.673 40.531 113.637 40.705 113.607 40.921C113.577 41.113 113.562 41.278 113.562 41.416C113.562 41.71 113.628 41.941 113.76 42.109C113.892 42.277 114.114 42.361 114.426 42.361ZM122.175 38.32C122.235 38.32 122.283 38.338 122.319 38.374C122.343 38.404 122.355 38.44 122.355 38.482C122.355 38.494 122.352 38.509 122.346 38.527L121.428 42.793C121.416 42.853 121.386 42.904 121.338 42.946C121.296 42.982 121.245 43 121.185 43H120.771C120.711 43 120.663 42.982 120.627 42.946C120.597 42.904 120.588 42.853 120.6 42.793L120.915 41.326H119.979L118.629 42.865C118.539 42.955 118.452 43 118.368 43H117.891C117.849 43 117.813 42.988 117.783 42.964C117.759 42.934 117.747 42.898 117.747 42.856C117.747 42.79 117.78 42.724 117.846 42.658L119.196 41.137C118.968 41.035 118.794 40.885 118.674 40.687C118.554 40.489 118.494 40.276 118.494 40.048C118.494 39.958 118.503 39.868 118.521 39.778C118.635 39.28 118.866 38.914 119.214 38.68C119.562 38.44 120.039 38.32 120.645 38.32H122.175ZM121.419 38.995H120.474C120.132 38.995 119.871 39.055 119.691 39.175C119.511 39.295 119.391 39.502 119.331 39.796C119.313 39.874 119.304 39.955 119.304 40.039C119.304 40.225 119.364 40.375 119.484 40.489C119.61 40.597 119.799 40.651 120.051 40.651H121.068L121.419 38.995ZM130.814 36.88C130.808 36.904 130.784 36.943 130.742 36.997L128.429 39.751L129.707 42.685C129.713 42.697 129.716 42.712 129.716 42.73C129.716 42.748 129.713 42.766 129.707 42.784C129.695 42.844 129.665 42.895 129.617 42.937C129.575 42.979 129.524 43 129.464 43H129.005C128.945 43 128.9 42.988 128.87 42.964C128.84 42.94 128.813 42.907 128.789 42.865L127.619 40.21H126.503L125.954 42.793C125.942 42.853 125.912 42.904 125.864 42.946C125.816 42.982 125.762 43 125.702 43H125.243C125.183 43 125.135 42.982 125.099 42.946C125.069 42.91 125.06 42.859 125.072 42.793L126.332 36.916C126.344 36.85 126.371 36.799 126.413 36.763C126.461 36.721 126.515 36.7 126.575 36.7H127.034C127.094 36.7 127.142 36.718 127.178 36.754C127.208 36.784 127.223 36.823 127.223 36.871C127.223 36.883 127.22 36.898 127.214 36.916L126.674 39.4L127.673 39.409L129.788 36.844C129.872 36.748 129.986 36.7 130.13 36.7H130.661C130.769 36.7 130.823 36.742 130.823 36.826C130.823 36.844 130.82 36.862 130.814 36.88ZM132.392 43.09C131.828 43.09 131.39 42.943 131.078 42.649C130.772 42.355 130.619 41.965 130.619 41.479C130.619 41.329 130.631 41.185 130.655 41.047C130.673 40.927 130.697 40.792 130.727 40.642C130.763 40.492 130.796 40.369 130.826 40.273C130.976 39.649 131.261 39.154 131.681 38.788C132.101 38.416 132.641 38.23 133.301 38.23C133.871 38.23 134.309 38.377 134.615 38.671C134.927 38.965 135.083 39.355 135.083 39.841C135.083 39.991 135.071 40.135 135.047 40.273C135.011 40.477 134.957 40.735 134.885 41.047C134.723 41.671 134.432 42.169 134.012 42.541C133.598 42.907 133.058 43.09 132.392 43.09ZM132.428 42.397C132.812 42.397 133.148 42.277 133.436 42.037C133.724 41.791 133.922 41.446 134.03 41.002C134.084 40.786 134.135 40.558 134.183 40.318C134.207 40.18 134.219 40.042 134.219 39.904C134.219 39.586 134.138 39.343 133.976 39.175C133.814 39.007 133.577 38.923 133.265 38.923C132.881 38.923 132.545 39.046 132.257 39.292C131.975 39.532 131.78 39.874 131.672 40.318C131.618 40.504 131.57 40.732 131.528 41.002C131.498 41.182 131.483 41.329 131.483 41.443C131.483 41.755 131.561 41.992 131.717 42.154C131.879 42.316 132.116 42.397 132.428 42.397ZM141.259 38.32C141.307 38.32 141.346 38.335 141.376 38.365C141.4 38.389 141.412 38.419 141.412 38.455C141.412 38.467 141.409 38.479 141.403 38.491L140.485 42.802C140.479 42.862 140.452 42.91 140.404 42.946C140.362 42.982 140.314 43 140.26 43H139.819C139.759 43 139.714 42.982 139.684 42.946C139.66 42.922 139.648 42.889 139.648 42.847C139.648 42.835 139.651 42.82 139.657 42.802L140.296 39.805L138.676 42.019C138.616 42.097 138.562 42.157 138.514 42.199C138.466 42.235 138.406 42.253 138.334 42.253H138.172C138.1 42.253 138.046 42.235 138.01 42.199C137.98 42.157 137.953 42.097 137.929 42.019L137.191 39.733L136.534 42.802C136.528 42.862 136.501 42.91 136.453 42.946C136.411 42.982 136.36 43 136.3 43H135.859C135.799 43 135.754 42.982 135.724 42.946C135.7 42.922 135.688 42.889 135.688 42.847C135.688 42.835 135.691 42.82 135.697 42.802L136.615 38.491C136.621 38.449 136.645 38.41 136.687 38.374C136.735 38.338 136.783 38.32 136.831 38.32H137.272C137.368 38.32 137.434 38.368 137.47 38.464L138.424 41.353L140.494 38.464C140.572 38.368 140.656 38.32 140.746 38.32H141.259ZM142.012 43C141.952 43 141.904 42.982 141.868 42.946C141.838 42.904 141.829 42.853 141.841 42.793L142.759 38.527C142.765 38.467 142.792 38.419 142.84 38.383C142.888 38.341 142.942 38.32 143.002 38.32H146.575C146.635 38.32 146.683 38.338 146.719 38.374C146.743 38.404 146.755 38.44 146.755 38.482C146.755 38.494 146.752 38.509 146.746 38.527L145.828 42.793C145.822 42.853 145.795 42.904 145.747 42.946C145.699 42.982 145.645 43 145.585 43H145.153C145.093 43 145.048 42.979 145.018 42.937C144.994 42.913 144.982 42.88 144.982 42.838C144.982 42.826 144.985 42.811 144.991 42.793L145.792 39.04H143.488L142.687 42.793C142.681 42.853 142.654 42.904 142.606 42.946C142.558 42.982 142.504 43 142.444 43H142.012ZM148.787 43.09C148.259 43.09 147.869 42.94 147.617 42.64C147.365 42.34 147.239 41.944 147.239 41.452C147.239 41.302 147.254 41.128 147.284 40.93C147.302 40.846 147.341 40.666 147.401 40.39C147.569 39.748 147.836 39.229 148.202 38.833C148.574 38.431 149.081 38.23 149.723 38.23C150.083 38.23 150.362 38.29 150.56 38.41C150.764 38.524 150.926 38.686 151.046 38.896L151.118 38.527C151.13 38.467 151.16 38.419 151.208 38.383C151.256 38.341 151.31 38.32 151.37 38.32H151.775C151.835 38.32 151.883 38.338 151.919 38.374C151.943 38.404 151.955 38.44 151.955 38.482C151.955 38.494 151.952 38.509 151.946 38.527L151.037 42.793C151.025 42.853 150.995 42.904 150.947 42.946C150.905 42.982 150.854 43 150.794 43H150.38C150.32 43 150.275 42.979 150.245 42.937C150.221 42.913 150.209 42.88 150.209 42.838C150.209 42.826 150.212 42.811 150.218 42.793L150.299 42.415C150.077 42.643 149.855 42.814 149.633 42.928C149.417 43.036 149.135 43.09 148.787 43.09ZM148.976 42.361C149.396 42.361 149.744 42.223 150.02 41.947C150.302 41.671 150.488 41.347 150.578 40.975C150.626 40.759 150.674 40.528 150.722 40.282C150.746 40.18 150.758 40.063 150.758 39.931C150.758 39.649 150.68 39.418 150.524 39.238C150.368 39.052 150.125 38.959 149.795 38.959C149.399 38.959 149.075 39.094 148.823 39.364C148.577 39.628 148.391 39.973 148.265 40.399C148.223 40.531 148.187 40.705 148.157 40.921C148.127 41.113 148.112 41.278 148.112 41.416C148.112 41.71 148.178 41.941 148.31 42.109C148.442 42.277 148.664 42.361 148.976 42.361ZM152.611 43C152.551 43 152.503 42.982 152.467 42.946C152.437 42.904 152.428 42.853 152.44 42.793L153.358 38.527C153.364 38.467 153.391 38.419 153.439 38.383C153.487 38.341 153.541 38.32 153.601 38.32H154.033C154.093 38.32 154.138 38.338 154.168 38.374C154.192 38.404 154.204 38.44 154.204 38.482C154.204 38.494 154.201 38.509 154.195 38.527L153.826 40.255H156.274L156.652 38.527C156.664 38.467 156.691 38.419 156.733 38.383C156.781 38.341 156.835 38.32 156.895 38.32H157.318C157.378 38.32 157.426 38.338 157.462 38.374C157.486 38.404 157.498 38.44 157.498 38.482C157.498 38.494 157.495 38.509 157.489 38.527L156.571 42.793C156.565 42.853 156.538 42.904 156.49 42.946C156.442 42.982 156.388 43 156.328 43H155.905C155.845 43 155.797 42.982 155.761 42.946C155.731 42.904 155.722 42.853 155.734 42.793L156.121 40.975H153.673L153.286 42.793C153.28 42.853 153.253 42.904 153.205 42.946C153.157 42.982 153.103 43 153.043 43H152.611ZM159.644 43.09C159.134 43.09 158.75 42.967 158.492 42.721C158.24 42.469 158.114 42.121 158.114 41.677C158.114 41.497 158.138 41.293 158.186 41.065L158.726 38.527C158.738 38.467 158.768 38.419 158.816 38.383C158.864 38.341 158.918 38.32 158.978 38.32H159.428C159.488 38.32 159.533 38.338 159.563 38.374C159.581 38.404 159.59 38.437 159.59 38.473C159.59 38.491 159.587 38.509 159.581 38.527L159.059 41.02C159.011 41.26 158.987 41.458 158.987 41.614C158.987 41.866 159.053 42.055 159.185 42.181C159.323 42.301 159.548 42.361 159.86 42.361C160.256 42.361 160.598 42.244 160.886 42.01C161.18 41.77 161.372 41.44 161.462 41.02L161.993 38.527C162.005 38.467 162.035 38.419 162.083 38.383C162.131 38.341 162.185 38.32 162.245 38.32H162.686C162.746 38.32 162.791 38.338 162.821 38.374C162.845 38.404 162.857 38.44 162.857 38.482C162.857 38.494 162.854 38.509 162.848 38.527L161.939 42.793C161.927 42.853 161.897 42.904 161.849 42.946C161.807 42.982 161.756 43 161.696 43H161.282C161.222 43 161.174 42.982 161.138 42.946C161.108 42.904 161.099 42.853 161.111 42.793L161.192 42.397C160.958 42.637 160.733 42.814 160.517 42.928C160.307 43.036 160.016 43.09 159.644 43.09ZM167.623 38.32C167.683 38.32 167.731 38.338 167.767 38.374C167.791 38.404 167.803 38.44 167.803 38.482C167.803 38.494 167.8 38.509 167.794 38.527L166.876 42.793C166.864 42.853 166.834 42.904 166.786 42.946C166.744 42.982 166.693 43 166.633 43H166.219C166.159 43 166.111 42.982 166.075 42.946C166.045 42.904 166.036 42.853 166.048 42.793L166.363 41.326H165.427L164.077 42.865C163.987 42.955 163.9 43 163.816 43H163.339C163.297 43 163.261 42.988 163.231 42.964C163.207 42.934 163.195 42.898 163.195 42.856C163.195 42.79 163.228 42.724 163.294 42.658L164.644 41.137C164.416 41.035 164.242 40.885 164.122 40.687C164.002 40.489 163.942 40.276 163.942 40.048C163.942 39.958 163.951 39.868 163.969 39.778C164.083 39.28 164.314 38.914 164.662 38.68C165.01 38.44 165.487 38.32 166.093 38.32H167.623ZM166.867 38.995H165.922C165.58 38.995 165.319 39.055 165.139 39.175C164.959 39.295 164.839 39.502 164.779 39.796C164.761 39.874 164.752 39.955 164.752 40.039C164.752 40.225 164.812 40.375 164.932 40.489C165.058 40.597 165.247 40.651 165.499 40.651H166.516L166.867 38.995Z" fill="#1D2029"/>
</svg>
