<svg width="32" height="39" viewBox="0 0 32 39" fill="none" xmlns="http://www.w3.org/2000/svg">
<g clip-path="url(#clip0)">
<path d="M23 19.5H19C18.4477 19.5 18 20.0456 18 20.7188V30.4688C18 31.1419 18.4477 31.6875 19 31.6875H23C24.1046 31.6875 25 30.5962 25 29.25V21.9375C25 20.5913 24.1046 19.5 23 19.5ZM23 29.25H20V21.9375H23V29.25Z" fill="black" fill-opacity="0.1"/>
<path d="M32 21.9375V19.5H27C26.4477 19.5 26 20.0456 26 20.7188V31.6875H28V26.8125H32V24.375H28V21.9375H32Z" fill="black" fill-opacity="0.1"/>
<path d="M2 35.3435V3.65602C2 2.98289 2.44769 2.43727 3 2.43727H18V7.31227C18 8.65845 18.8954 9.74977 20 9.74977H24V13.406H26V8.53102C26.0016 8.20706 25.8972 7.89567 25.71 7.6657L19.71 0.353205C19.5213 0.12507 19.2658 -0.00206045 19 -0.000232323H3C1.34312 -0.000232323 0 1.63678 0 3.65602V35.3435C0 37.3628 1.34312 38.9998 3 38.9998H10V36.5623H3C2.44775 36.5623 2 36.0166 2 35.3435Z" fill="black" fill-opacity="0.1"/>
<path d="M15 19.5H11C10.4477 19.5 10 20.0456 10 20.7188V31.6875H12V28.0313H15C16.1046 28.0313 17 26.9399 17 25.5938V21.9375C17 20.5913 16.1046 19.5 15 19.5ZM15 25.5938H12V21.9375H15V25.5938Z" fill="black" fill-opacity="0.1"/>
</g>
<defs>
<clipPath id="clip0">
<rect width="32" height="39" fill="white"/>
</clipPath>
</defs>
</svg>
